<svg version="1.2" xmlns="http://www.w3.org/2000/svg" viewBox="0 0 24 24" width="144" height="144">
	<title>favicon</title>
	<style>
		.s0 { fill: #ffffff;stroke: #000000;stroke-miterlimit:10;stroke-width: 2 } 
		.s1 { fill: #000000 } 
		.s2 { fill: #ff0000;stroke: #000000;stroke-miterlimit:10;stroke-width: 1.2 } 
	</style>
	<path class="s0" d="m21.5 12c0-3.8-2.3-7.3-5.9-8.8-3.5-1.4-7.6-0.6-10.3 2.1-2.7 2.7-3.5 6.8-2.1 10.3 1.5 3.6 5 5.9 8.8 5.9h9.5l-2.7-2.9q0.7-0.7 1.2-1.4 0.5-0.8 0.8-1.7 0.4-0.8 0.5-1.7 0.2-0.9 0.2-1.8z"/>
	<path fill-rule="evenodd" class="s1" d="m12 8.2l1.2 2.5 2.6 0.4-1.9 2 0.4 2.7-2.3-1.3-2.4 1.3 0.5-2.7-1.9-2 2.6-0.4 1.2-2.5z"/>
	<path id="シェイプ 5" fill-rule="evenodd" class="s2" d="m18.5 1c1.9 0 3.5 1.6 3.5 3.5 0 1.9-1.6 3.5-3.5 3.5-1.9 0-3.5-1.6-3.5-3.5 0-1.9 1.6-3.5 3.5-3.5z"/>
</svg>